<?xml version="1.0" encoding="UTF-8" standalone="no"?>
<!DOCTYPE svg PUBLIC "-//W3C//DTD SVG 1.1//EN"
 "http://www.w3.org/Graphics/SVG/1.1/DTD/svg11.dtd">
<!-- Generated by graphviz version 2.47.3 (20210619.1520)
 -->
<!-- Title: dependencies Pages: 1 -->
<svg width="464pt" height="247pt"
 viewBox="0.00 0.00 464.00 246.80" xmlns="http://www.w3.org/2000/svg" xmlns:xlink="http://www.w3.org/1999/xlink">
<g id="graph0" class="graph" transform="scale(1 1) rotate(0) translate(4 242.8)">
<title>dependencies</title>
<polygon fill="white" stroke="transparent" points="-4,4 -4,-242.8 460,-242.8 460,4 -4,4"/>
<text text-anchor="middle" x="228" y="-8.2" font-family="sans-serif" font-size="14.00">dependencies</text>
<g id="clust1" class="cluster">
<title>cluster_GlucoseLevelsModule</title>
<polygon fill="none" stroke="black" stroke-dasharray="1,5" points="8,-32.8 8,-230.8 448,-230.8 448,-32.8 8,-32.8"/>
</g>
<g id="clust2" class="cluster">
<title>cluster_GlucoseLevelsModule_declarations</title>
<polygon fill="none" stroke="black" points="228,-40.8 228,-92.8 440,-92.8 440,-40.8 228,-40.8"/>
</g>
<g id="clust4" class="cluster">
<title>cluster_GlucoseLevelsModule_imports</title>
<polygon fill="none" stroke="black" points="16,-40.8 16,-92.8 220,-92.8 220,-40.8 16,-40.8"/>
</g>
<g id="clust5" class="cluster">
<title>cluster_GlucoseLevelsModule_exports</title>
<polygon fill="none" stroke="black" points="120,-170.8 120,-222.8 336,-222.8 336,-170.8 120,-170.8"/>
</g>
<!-- GlucoseLevelsTableComponent -->
<g id="node1" class="node">
<title>GlucoseLevelsTableComponent</title>
<polygon fill="#ffffb3" stroke="black" points="432.39,-84.8 235.61,-84.8 235.61,-48.8 432.39,-48.8 432.39,-84.8"/>
<text text-anchor="middle" x="334" y="-62.6" font-family="Times,serif" font-size="14.00">GlucoseLevelsTableComponent</text>
</g>
<!-- GlucoseLevelsModule -->
<g id="node2" class="node">
<title>GlucoseLevelsModule</title>
<polygon fill="#8dd3c7" stroke="black" points="299.24,-149.8 296.24,-153.8 275.24,-153.8 272.24,-149.8 156.76,-149.8 156.76,-113.8 299.24,-113.8 299.24,-149.8"/>
<text text-anchor="middle" x="228" y="-127.6" font-family="Times,serif" font-size="14.00">GlucoseLevelsModule</text>
</g>
<!-- GlucoseLevelsTableComponent&#45;&gt;GlucoseLevelsModule -->
<g id="edge1" class="edge">
<title>GlucoseLevelsTableComponent&#45;&gt;GlucoseLevelsModule</title>
<path fill="none" stroke="black" d="M267.59,-84.91C267.59,-84.91 267.59,-103.79 267.59,-103.79"/>
<polygon fill="black" stroke="black" points="264.09,-103.79 267.59,-113.79 271.09,-103.79 264.09,-103.79"/>
</g>
<!-- GlucoseLevelsTableComponent  -->
<g id="node4" class="node">
<title>GlucoseLevelsTableComponent </title>
<polygon fill="#fb8072" stroke="black" points="327.89,-214.8 128.11,-214.8 128.11,-178.8 327.89,-178.8 327.89,-214.8"/>
<text text-anchor="middle" x="228" y="-192.6" font-family="Times,serif" font-size="14.00">GlucoseLevelsTableComponent </text>
</g>
<!-- GlucoseLevelsModule&#45;&gt;GlucoseLevelsTableComponent  -->
<g id="edge3" class="edge">
<title>GlucoseLevelsModule&#45;&gt;GlucoseLevelsTableComponent </title>
<path fill="none" stroke="black" stroke-dasharray="5,2" d="M228,-149.91C228,-149.91 228,-168.79 228,-168.79"/>
<polygon fill="black" stroke="black" points="224.5,-168.79 228,-178.79 231.5,-168.79 224.5,-168.79"/>
</g>
<!-- GlucoseLevelsRoutingModule -->
<g id="node3" class="node">
<title>GlucoseLevelsRoutingModule</title>
<polygon fill="#8dd3c7" stroke="black" points="211.86,-84.8 208.86,-88.8 187.86,-88.8 184.86,-84.8 24.14,-84.8 24.14,-48.8 211.86,-48.8 211.86,-84.8"/>
<text text-anchor="middle" x="118" y="-62.6" font-family="Times,serif" font-size="14.00">GlucoseLevelsRoutingModule</text>
</g>
<!-- GlucoseLevelsRoutingModule&#45;&gt;GlucoseLevelsModule -->
<g id="edge2" class="edge">
<title>GlucoseLevelsRoutingModule&#45;&gt;GlucoseLevelsModule</title>
<path fill="none" stroke="black" d="M184.28,-84.91C184.28,-84.91 184.28,-103.79 184.28,-103.79"/>
<polygon fill="black" stroke="black" points="180.78,-103.79 184.28,-113.79 187.78,-103.79 180.78,-103.79"/>
</g>
</g>
</svg>
