<?xml version="1.0" encoding="UTF-8" standalone="no"?>
<!DOCTYPE svg PUBLIC "-//W3C//DTD SVG 1.1//EN"
 "http://www.w3.org/Graphics/SVG/1.1/DTD/svg11.dtd">
<!-- Generated by graphviz version 2.47.3 (20210619.1520)
 -->
<!-- Title: dependencies Pages: 1 -->
<svg width="762pt" height="247pt"
 viewBox="0.00 0.00 762.00 246.80" xmlns="http://www.w3.org/2000/svg" xmlns:xlink="http://www.w3.org/1999/xlink">
<g id="graph0" class="graph" transform="scale(1 1) rotate(0) translate(4 242.8)">
<title>dependencies</title>
<polygon fill="white" stroke="transparent" points="-4,4 -4,-242.8 758,-242.8 758,4 -4,4"/>
<text text-anchor="middle" x="377" y="-8.2" font-family="sans-serif" font-size="14.00">dependencies</text>
<g id="clust1" class="cluster">
<title>cluster_AppModule</title>
<polygon fill="none" stroke="black" stroke-dasharray="1,5" points="8,-32.8 8,-230.8 298,-230.8 298,-32.8 8,-32.8"/>
</g>
<g id="clust2" class="cluster">
<title>cluster_AppModule_declarations</title>
<polygon fill="none" stroke="black" points="168,-40.8 168,-92.8 290,-92.8 290,-40.8 168,-40.8"/>
</g>
<g id="clust4" class="cluster">
<title>cluster_AppModule_imports</title>
<polygon fill="none" stroke="black" points="16,-40.8 16,-92.8 160,-92.8 160,-40.8 16,-40.8"/>
</g>
<g id="clust6" class="cluster">
<title>cluster_AppModule_bootstrap</title>
<polygon fill="none" stroke="black" points="96,-170.8 96,-222.8 220,-222.8 220,-170.8 96,-170.8"/>
</g>
<g id="clust14" class="cluster">
<title>cluster_GlucoseLevelsModule</title>
<polygon fill="none" stroke="black" stroke-dasharray="1,5" points="306,-32.8 306,-230.8 746,-230.8 746,-32.8 306,-32.8"/>
</g>
<g id="clust15" class="cluster">
<title>cluster_GlucoseLevelsModule_declarations</title>
<polygon fill="none" stroke="black" points="526,-40.8 526,-92.8 738,-92.8 738,-40.8 526,-40.8"/>
</g>
<g id="clust17" class="cluster">
<title>cluster_GlucoseLevelsModule_imports</title>
<polygon fill="none" stroke="black" points="314,-40.8 314,-92.8 518,-92.8 518,-40.8 314,-40.8"/>
</g>
<g id="clust18" class="cluster">
<title>cluster_GlucoseLevelsModule_exports</title>
<polygon fill="none" stroke="black" points="418,-170.8 418,-222.8 634,-222.8 634,-170.8 418,-170.8"/>
</g>
<!-- AppComponent -->
<g id="node1" class="node">
<title>AppComponent</title>
<polygon fill="#ffffb3" stroke="black" points="281.94,-84.8 176.06,-84.8 176.06,-48.8 281.94,-48.8 281.94,-84.8"/>
<text text-anchor="middle" x="229" y="-62.6" font-family="Times,serif" font-size="14.00">AppComponent</text>
</g>
<!-- AppModule -->
<g id="node2" class="node">
<title>AppModule</title>
<polygon fill="#8dd3c7" stroke="black" points="199.66,-149.8 196.66,-153.8 175.66,-153.8 172.66,-149.8 116.34,-149.8 116.34,-113.8 199.66,-113.8 199.66,-149.8"/>
<text text-anchor="middle" x="158" y="-127.6" font-family="Times,serif" font-size="14.00">AppModule</text>
</g>
<!-- AppComponent&#45;&gt;AppModule -->
<g id="edge1" class="edge">
<title>AppComponent&#45;&gt;AppModule</title>
<path fill="none" stroke="black" d="M188.05,-84.91C188.05,-84.91 188.05,-103.79 188.05,-103.79"/>
<polygon fill="black" stroke="black" points="184.55,-103.79 188.05,-113.79 191.55,-103.79 184.55,-103.79"/>
</g>
<!-- AppComponent  -->
<g id="node4" class="node">
<title>AppComponent </title>
<polygon fill="#80b1d3" stroke="black" points="212.44,-214.8 103.56,-214.8 103.56,-178.8 212.44,-178.8 212.44,-214.8"/>
<text text-anchor="middle" x="158" y="-192.6" font-family="Times,serif" font-size="14.00">AppComponent </text>
</g>
<!-- AppModule&#45;&gt;AppComponent  -->
<g id="edge3" class="edge">
<title>AppModule&#45;&gt;AppComponent </title>
<path fill="none" stroke="black" stroke-dasharray="1,5" d="M158,-149.91C158,-149.91 158,-168.79 158,-168.79"/>
<polygon fill="black" stroke="black" points="154.5,-168.79 158,-178.79 161.5,-168.79 154.5,-168.79"/>
</g>
<!-- AppRoutingModule -->
<g id="node3" class="node">
<title>AppRoutingModule</title>
<polygon fill="#8dd3c7" stroke="black" points="152.27,-84.8 149.27,-88.8 128.27,-88.8 125.27,-84.8 23.73,-84.8 23.73,-48.8 152.27,-48.8 152.27,-84.8"/>
<text text-anchor="middle" x="88" y="-62.6" font-family="Times,serif" font-size="14.00">AppRoutingModule</text>
</g>
<!-- AppRoutingModule&#45;&gt;AppModule -->
<g id="edge2" class="edge">
<title>AppRoutingModule&#45;&gt;AppModule</title>
<path fill="none" stroke="black" d="M134.28,-84.91C134.28,-84.91 134.28,-103.79 134.28,-103.79"/>
<polygon fill="black" stroke="black" points="130.78,-103.79 134.28,-113.79 137.78,-103.79 130.78,-103.79"/>
</g>
<!-- GlucoseLevelsTableComponent -->
<g id="node5" class="node">
<title>GlucoseLevelsTableComponent</title>
<polygon fill="#ffffb3" stroke="black" points="730.39,-84.8 533.61,-84.8 533.61,-48.8 730.39,-48.8 730.39,-84.8"/>
<text text-anchor="middle" x="632" y="-62.6" font-family="Times,serif" font-size="14.00">GlucoseLevelsTableComponent</text>
</g>
<!-- GlucoseLevelsModule -->
<g id="node6" class="node">
<title>GlucoseLevelsModule</title>
<polygon fill="#8dd3c7" stroke="black" points="597.24,-149.8 594.24,-153.8 573.24,-153.8 570.24,-149.8 454.76,-149.8 454.76,-113.8 597.24,-113.8 597.24,-149.8"/>
<text text-anchor="middle" x="526" y="-127.6" font-family="Times,serif" font-size="14.00">GlucoseLevelsModule</text>
</g>
<!-- GlucoseLevelsTableComponent&#45;&gt;GlucoseLevelsModule -->
<g id="edge4" class="edge">
<title>GlucoseLevelsTableComponent&#45;&gt;GlucoseLevelsModule</title>
<path fill="none" stroke="black" d="M565.59,-84.91C565.59,-84.91 565.59,-103.79 565.59,-103.79"/>
<polygon fill="black" stroke="black" points="562.09,-103.79 565.59,-113.79 569.09,-103.79 562.09,-103.79"/>
</g>
<!-- GlucoseLevelsTableComponent  -->
<g id="node8" class="node">
<title>GlucoseLevelsTableComponent </title>
<polygon fill="#fb8072" stroke="black" points="625.89,-214.8 426.11,-214.8 426.11,-178.8 625.89,-178.8 625.89,-214.8"/>
<text text-anchor="middle" x="526" y="-192.6" font-family="Times,serif" font-size="14.00">GlucoseLevelsTableComponent </text>
</g>
<!-- GlucoseLevelsModule&#45;&gt;GlucoseLevelsTableComponent  -->
<g id="edge6" class="edge">
<title>GlucoseLevelsModule&#45;&gt;GlucoseLevelsTableComponent </title>
<path fill="none" stroke="black" stroke-dasharray="5,2" d="M526,-149.91C526,-149.91 526,-168.79 526,-168.79"/>
<polygon fill="black" stroke="black" points="522.5,-168.79 526,-178.79 529.5,-168.79 522.5,-168.79"/>
</g>
<!-- GlucoseLevelsRoutingModule -->
<g id="node7" class="node">
<title>GlucoseLevelsRoutingModule</title>
<polygon fill="#8dd3c7" stroke="black" points="509.86,-84.8 506.86,-88.8 485.86,-88.8 482.86,-84.8 322.14,-84.8 322.14,-48.8 509.86,-48.8 509.86,-84.8"/>
<text text-anchor="middle" x="416" y="-62.6" font-family="Times,serif" font-size="14.00">GlucoseLevelsRoutingModule</text>
</g>
<!-- GlucoseLevelsRoutingModule&#45;&gt;GlucoseLevelsModule -->
<g id="edge5" class="edge">
<title>GlucoseLevelsRoutingModule&#45;&gt;GlucoseLevelsModule</title>
<path fill="none" stroke="black" d="M482.28,-84.91C482.28,-84.91 482.28,-103.79 482.28,-103.79"/>
<polygon fill="black" stroke="black" points="478.78,-103.79 482.28,-113.79 485.78,-103.79 478.78,-103.79"/>
</g>
</g>
</svg>
